<?xml version="1.0" standalone="no"?>
<!DOCTYPE svg PUBLIC "-//W3C//DTD SVG 20010904//EN"
 "http://www.w3.org/TR/2001/REC-SVG-20010904/DTD/svg10.dtd">
<svg version="1.0" xmlns="http://www.w3.org/2000/svg"
 width="100.000000pt" height="100.000000pt" viewBox="0 0 100.000000 100.000000"
 preserveAspectRatio="xMidYMid meet">
<metadata>
Created by potrace 1.11, written by Peter Selinger 2001-2013
</metadata>
<g transform="translate(0.000000,100.000000) scale(0.100000,-0.100000)"
fill="#000000" stroke="none">
<path d="M104 891 c-99 -45 -133 -167 -71 -260 32 -48 87 -75 153 -74 l50 0
-20 -41 c-30 -59 -29 -173 2 -242 29 -64 92 -126 157 -156 70 -32 180 -32 250
0 139 63 214 223 171 363 -10 30 -19 59 -22 65 -3 6 8 9 30 6 99 -12 195 75
196 177 0 93 -81 175 -173 175 -109 1 -182 -70 -182 -176 0 -32 -1 -58 -1 -58
-1 0 -19 7 -40 16 -21 9 -66 16 -104 16 -38 0 -83 -7 -104 -16 -21 -9 -40 -16
-41 -16 -2 0 -1 17 2 39 10 75 -31 150 -101 182 -52 24 -100 24 -152 0z"/>
</g>
</svg>
